<svg xmlns="http://www.w3.org/2000/svg" viewBox="0 0 1200 800" role="img" aria-label="Forest research placeholder">
  <defs>
    <linearGradient id="bg" x1="0" y1="0" x2="1" y2="1">
      <stop offset="0%" stop-color="#103426"/>
      <stop offset="100%" stop-color="#1f5b42"/>
    </linearGradient>
    <linearGradient id="canopy" x1="0" y1="0" x2="0" y2="1">
      <stop offset="0%" stop-color="#63a37f" stop-opacity="0.9"/>
      <stop offset="100%" stop-color="#2f6c4d" stop-opacity="0.95"/>
    </linearGradient>
  </defs>
  <rect width="1200" height="800" fill="url(#bg)"/>
  <circle cx="980" cy="130" r="90" fill="#f2dea0" opacity="0.8"/>
  <rect x="0" y="550" width="1200" height="250" fill="#183f2f"/>
  <path d="M0 560 C180 470 280 650 460 560 C620 480 730 650 930 560 C1020 510 1110 570 1200 550 L1200 800 L0 800 Z" fill="url(#canopy)"/>
  <rect x="190" y="320" width="34" height="250" fill="#4b3627"/>
  <circle cx="207" cy="290" r="88" fill="#3f7a59"/>
  <rect x="470" y="300" width="40" height="270" fill="#4b3627"/>
  <circle cx="490" cy="270" r="96" fill="#3a734f"/>
  <rect x="830" y="330" width="36" height="240" fill="#4b3627"/>
  <circle cx="848" cy="304" r="90" fill="#4f8963"/>
  <rect x="120" y="628" width="960" height="112" rx="18" fill="#0f261c" opacity="0.65"/>
  <text x="600" y="694" text-anchor="middle" fill="#d9f0e3" font-family="Segoe UI, Arial, sans-serif" font-size="42" letter-spacing="2">
    Forest Research Visual Placeholder
  </text>
</svg>
